<svg width="20" height="19" viewBox="0 0 20 19" fill="none" xmlns="http://www.w3.org/2000/svg">
<path id="Vector" d="M14.2939 11.9497H13.3905L13.0703 11.6564C14.191 10.418 14.8656 8.81018 14.8656 7.06118C14.8656 3.16123 11.538 0 7.43282 0C3.32762 0 0 3.16123 0 7.06118C0 10.9611 3.32762 14.1224 7.43282 14.1224C9.27387 14.1224 10.9663 13.4814 12.2699 12.4168L12.5786 12.721V13.5792L18.2962 19L20 17.3814L14.2939 11.9497ZM7.43282 11.9497C4.58548 11.9497 2.28702 9.76615 2.28702 7.06118C2.28702 4.3562 4.58548 2.17267 7.43282 2.17267C10.2802 2.17267 12.5786 4.3562 12.5786 7.06118C12.5786 9.76615 10.2802 11.9497 7.43282 11.9497Z" fill="black"/>
</svg>
