<svg width="21" height="21" viewBox="0 0 21 21" fill="none" xmlns="http://www.w3.org/2000/svg">
<path id="Vector" d="M6.516 16.3784C5.39952 16.4082 4.52015 17.3322 4.54944 18.4322C4.57873 19.5322 5.50604 20.4082 6.62252 20.3785C7.73901 20.3487 8.62853 19.4244 8.59924 18.3244C8.56995 17.2244 7.63249 16.3487 6.516 16.3784ZM0 0.540527L0.0532596 2.54054L2.08324 2.48648L5.93931 9.97922L4.63432 12.4657C4.47938 12.75 4.39682 13.0825 4.40614 13.4325C4.43543 14.5325 5.37289 15.4082 6.48937 15.3784L18.6692 15.0541L18.616 13.0541L6.86241 13.3671C6.72031 13.3709 6.60573 13.2638 6.60201 13.1238L6.62926 13.003L7.49934 11.3487L15.061 11.1473C15.8222 11.127 16.4812 10.6992 16.8098 10.07L20.2706 3.48321C20.3481 3.34105 20.3842 3.16997 20.3796 2.99997C20.365 2.44996 19.8963 2.01212 19.338 2.02699L4.32636 2.42675L3.31901 0.452143L0 0.540527ZM16.6659 16.1082C15.5494 16.1379 14.67 17.0619 14.6993 18.1619C14.7286 19.262 15.6559 20.1379 16.7724 20.1082C17.8889 20.0784 18.7784 19.1541 18.7491 18.0541C18.7198 16.9541 17.7824 16.0784 16.6659 16.1082Z" fill="black"/>
</svg>
