<svg width="17" height="18" viewBox="0 0 17 18" fill="none" xmlns="http://www.w3.org/2000/svg">
<path id="Vector" d="M5.14235 14.4C4.25211 14.4 3.53183 15.21 3.53183 16.2C3.53183 17.19 4.25211 18 5.14235 18C6.03259 18 6.76097 17.19 6.76097 16.2C6.76097 15.21 6.03259 14.4 5.14235 14.4ZM0.286499 0V1.8H1.90512L4.81863 8.631L3.72606 10.836C3.59657 11.088 3.52373 11.385 3.52373 11.7C3.52373 12.69 4.25211 13.5 5.14235 13.5H14.8541V11.7H5.48226C5.36896 11.7 5.27993 11.601 5.27993 11.475L5.30421 11.367L6.03259 9.9H12.0619C12.6689 9.9 13.2031 9.531 13.4782 8.973L16.3756 3.132C16.4403 3.006 16.4727 2.853 16.4727 2.7C16.4727 2.205 16.1085 1.8 15.6634 1.8H3.69369L2.93294 0H0.286499ZM13.2354 14.4C12.3452 14.4 11.6249 15.21 11.6249 16.2C11.6249 17.19 12.3452 18 13.2354 18C14.1257 18 14.8541 17.19 14.8541 16.2C14.8541 15.21 14.1257 14.4 13.2354 14.4Z" fill="black"/>
</svg>
